<svg width="48" height="49" viewBox="0 0 48 49" fill="none" xmlns="http://www.w3.org/2000/svg">
<path d="M40.9 2.5H8.1C5.83589 2.5 4 4.3135 4 6.55V43.45C4 45.6865 5.83589 47.5 8.1 47.5H40.9C43.1641 47.5 45 45.6865 45 43.45V6.55C45 4.3135 43.1641 2.5 40.9 2.5ZM14.25 40.75V31.75L19.375 36.25L14.25 40.75ZM30.1944 40.75V27.3119C30.1722 26.2617 29.6603 25 27.3472 25C22.7154 25 17.5197 27.3012 17.4679 27.3242L14.25 28.7642V9.25H18.8056V22.0249C21.0799 21.2937 24.2591 20.5 27.3472 20.5C30.1631 20.5 31.8487 21.5935 32.7666 22.5109C34.7261 24.4684 34.7528 26.962 34.75 27.25L34.7501 40.75H30.1944ZM31.3333 16.5625H26.7778C28.5681 14.2422 29.6922 11.8004 30.1944 9.25H34.75C34.4425 11.806 33.3936 14.2562 31.3333 16.5625Z" fill="#6963B9"/>
</svg>
