<svg width="462" height="462" viewBox="0 0 462 462" fill="none" xmlns="http://www.w3.org/2000/svg">
<g clip-path="url(#clip0_26_4)">
<path d="M365.63 67.5625H96.1171C43.2391 67.5625 0.373047 110.428 0.373047 163.306V298.034C0.373047 350.912 43.2391 393.779 96.1171 393.779H365.63C418.508 393.779 461.374 350.912 461.374 298.034V163.306C461.374 110.428 418.508 67.5625 365.63 67.5625ZM300.879 237.225L174.819 297.348C171.46 298.95 167.58 296.501 167.58 292.78V168.776C167.58 165.002 171.562 162.557 174.928 164.263L300.988 228.143C304.736 230.042 304.671 235.417 300.879 237.225Z" fill="#F61C0D"/>
</g>
<defs>
<clipPath id="clip0_26_4">
<rect width="461.001" height="461.001" fill="white" transform="translate(0.373047 0.169922)"/>
</clipPath>
</defs>
</svg>
