<svg width="64" height="65" viewBox="0 0 64 65" fill="none" xmlns="http://www.w3.org/2000/svg">
<g clip-path="url(#clip0_26_21)">
<path d="M16.3203 46.5004H58.6743V34.7804L50.6283 30.1664L49.2403 29.5664L16.3203 29.7924V46.5004Z" fill="white"/>
<path d="M44.024 44.9435C44.418 43.5935 44.268 42.3555 43.612 41.4355C43.012 40.5915 41.998 40.1035 40.78 40.0475L17.69 39.7475C17.54 39.7475 17.41 39.6715 17.334 39.5595C17.258 39.4475 17.24 39.2995 17.278 39.1475C17.354 38.9215 17.578 38.7535 17.822 38.7355L41.118 38.4355C43.878 38.3035 46.878 36.0715 47.926 33.3355L49.258 29.8655C49.3166 29.723 49.3306 29.5661 49.298 29.4155C47.798 22.6255 41.738 17.5615 34.498 17.5615C27.818 17.5615 22.158 21.8755 20.13 27.8615C18.816 26.8855 17.13 26.3615 15.346 26.5295C12.138 26.8495 9.54601 29.4175 9.25001 32.6255C9.17228 33.4233 9.22907 34.2285 9.41801 35.0075C6.89432 35.0759 4.49718 36.1274 2.73778 37.938C0.978381 39.7486 -0.00404201 42.1749 1.25001e-05 44.6995C1.25001e-05 45.1675 0.0400125 45.6395 0.0940125 46.1055C0.134012 46.3315 0.320013 46.4995 0.544013 46.4995H43.16C43.2826 46.4972 43.4013 46.456 43.499 46.382C43.5968 46.308 43.6685 46.2049 43.704 46.0875L44.024 44.9435Z" fill="#F38020"/>
<path d="M51.376 30.1064L50.736 30.1264C50.586 30.1264 50.456 30.2384 50.396 30.3864L49.496 33.5184C49.102 34.8684 49.252 36.1064 49.908 37.0264C50.508 37.8704 51.522 38.3584 52.74 38.4144L57.654 38.7144C57.804 38.7144 57.934 38.7904 58.01 38.9024C58.086 39.0144 58.104 39.1824 58.066 39.3144C57.99 39.5404 57.766 39.7084 57.522 39.7264L52.402 40.0264C49.626 40.1584 46.642 42.3904 45.594 45.1264L45.218 46.0824C45.142 46.2704 45.274 46.4584 45.478 46.4584H63.072C63.1739 46.4599 63.2733 46.4275 63.3548 46.3663C63.4362 46.3051 63.495 46.2187 63.522 46.1204C63.8338 45.0111 63.9946 43.8648 64 42.7124C63.9905 39.3691 62.6568 36.1657 60.2908 33.8035C57.9249 31.4413 54.7194 30.1107 51.376 30.1064Z" fill="#FAAE40"/>
</g>
<defs>
<clipPath id="clip0_26_21">
<rect width="64" height="64" fill="white" transform="translate(0 0.5)"/>
</clipPath>
</defs>
</svg>
