<svg width="2500" height="2501" viewBox="0 0 2500 2501" fill="none" xmlns="http://www.w3.org/2000/svg">
<g clip-path="url(#clip0_26_2)">
<path d="M0 1250.5C0 905.447 122.07 610.851 366.213 366.711C610.351 122.57 904.947 0.5 1250 0.5C1595.05 0.5 1889.65 122.57 2133.79 366.711C2377.93 610.851 2500 905.447 2500 1250.5C2500 1595.55 2377.93 1890.15 2133.79 2134.29C1889.65 2378.43 1595.05 2500.5 1250 2500.5C904.947 2500.5 610.351 2378.43 366.213 2134.29C122.07 1890.15 0 1595.55 0 1250.5ZM136.719 1250.5C136.719 1556.49 245.768 1818.53 463.867 2036.63C681.965 2254.73 944.009 2363.78 1250 2363.78C1555.99 2363.78 1818.03 2254.73 2036.13 2036.63C2254.23 1818.53 2363.28 1556.49 2363.28 1250.5C2363.28 944.509 2254.23 682.465 2036.13 464.367C1818.03 246.268 1555.99 137.219 1250 137.219C944.009 137.219 681.968 246.268 463.867 464.367C245.768 682.465 136.719 944.509 136.719 1250.5ZM488.283 1519.05C481.773 1512.54 481.773 1506.03 488.283 1499.52C501.302 1486.5 517.58 1481.62 537.109 1484.87C556.64 1488.13 568.033 1491.38 571.289 1494.64C594.075 1504.4 619.304 1526.38 646.971 1560.56C674.638 1594.74 696.611 1618.34 712.89 1631.36C791.015 1696.46 870.765 1701.34 952.145 1646.01C958.655 1623.22 969.236 1603.69 983.882 1587.41C998.528 1571.13 1012.37 1559.74 1025.39 1553.23C1038.41 1546.72 1061.2 1536.95 1093.75 1523.93C986.325 1514.17 899.249 1495.45 832.517 1467.78C765.786 1440.11 712.887 1405.12 673.825 1362.8C621.742 1304.21 590.002 1227.71 578.609 1133.31C567.213 1038.91 574.539 952.645 600.583 874.52C620.114 825.692 647.783 781.749 683.588 742.684C657.546 661.304 662.429 568.531 698.237 464.364C802.403 470.875 896.804 506.682 981.439 571.786C1144.2 529.468 1313.47 527.841 1489.25 566.903C1512.04 550.627 1547.03 530.283 1594.23 505.867C1641.43 481.453 1700.84 467.617 1772.45 464.362C1785.47 500.169 1794.43 542.487 1799.31 591.315C1804.19 640.143 1801.75 685.716 1791.99 728.033C1866.85 806.158 1905.92 910.325 1909.17 1040.53C1909.17 1144.7 1891.27 1230.96 1855.46 1299.32C1819.65 1367.68 1756.18 1424.65 1665.03 1470.22C1603.18 1499.52 1521.8 1517.42 1420.89 1523.93C1466.47 1546.71 1499.83 1570.32 1520.99 1594.73C1542.15 1619.14 1555.99 1657.39 1562.5 1709.48V1863.29L1567.38 2012.21C1577.14 2028.49 1588.54 2042.32 1601.56 2053.72C1614.58 2065.11 1625.98 2073.25 1635.74 2078.13C1645.5 2083.02 1648.76 2090.34 1645.5 2100.11C1642.25 2109.87 1629.23 2114.76 1606.44 2114.76C1551.1 2114.76 1507.16 2095.22 1474.61 2056.16C1464.84 2039.88 1459.96 2020.35 1459.96 1997.57V1763.19C1459.96 1737.15 1453.45 1718.43 1440.43 1707.04C1427.41 1695.64 1414.39 1688.32 1401.37 1685.06V1992.68C1401.37 2048.02 1407.88 2083.83 1420.9 2100.1C1433.92 2116.38 1442.06 2132.66 1445.31 2148.93C1448.57 2152.19 1446.13 2154.63 1437.99 2156.25C1429.85 2157.88 1416.02 2155.44 1396.48 2148.93C1354.17 2139.16 1324.87 2117.19 1308.59 2083.01C1292.32 2048.83 1284.18 2012.21 1284.18 1973.15V1670.42H1220.7V1973.15C1220.7 2012.22 1212.56 2049.65 1196.29 2085.46C1173.5 2131.03 1131.18 2155.45 1069.33 2158.7C1059.57 2155.45 1054.69 2152.19 1054.69 2148.94C1057.94 2145.68 1067.71 2129.41 1083.98 2100.11C1087.24 2093.6 1091.31 2080.58 1096.19 2061.05C1101.08 2041.52 1103.52 2018.73 1103.52 1992.69V1685.07C1090.5 1688.32 1078.29 1695.65 1066.89 1707.04C1055.5 1718.44 1049.8 1737.15 1049.8 1763.2V1997.57C1049.8 2020.35 1044.92 2039.89 1035.16 2056.16C1005.86 2095.23 961.913 2114.76 903.322 2114.76C880.536 2114.76 867.515 2109.88 864.259 2100.11C861.002 2093.6 861.817 2087.9 866.702 2083.02C871.587 2078.14 878.91 2072.44 888.676 2065.93C898.442 2059.42 904.952 2054.53 908.207 2051.28C921.228 2041.52 930.991 2028.5 937.504 2012.22C947.27 1999.2 949.71 1965.02 944.827 1909.68C939.944 1854.34 939.129 1818.53 942.384 1802.26C857.747 1831.56 771.486 1816.9 683.593 1758.31C657.551 1732.27 631.51 1694.83 605.468 1646.01C585.937 1610.2 546.874 1567.88 488.283 1519.05Z" fill="black"/>
</g>
<defs>
<clipPath id="clip0_26_2">
<rect width="2500" height="2500" fill="white" transform="translate(0 0.5)"/>
</clipPath>
</defs>
</svg>
